<?xml version="1.0" encoding="utf-8"?>
<!DOCTYPE svg PUBLIC "-//W3C//DTD SVG 1.1//EN" "http://www.w3.org/Graphics/SVG/1.1/DTD/svg11.dtd">
<svg version="1.1"
	 id="Layer_1" xmlns:dc="http://purl.org/dc/elements/1.1/" xmlns:cc="http://creativecommons.org/ns#" xmlns:rdf="http://www.w3.org/1999/02/22-rdf-syntax-ns#" xmlns:svg="http://www.w3.org/2000/svg" xmlns:sodipodi="http://sodipodi.sourceforge.net/DTD/sodipodi-0.dtd" xmlns:inkscape="http://www.inkscape.org/namespaces/inkscape" sodipodi:docname="kreis.svg" inkscape:version="0.48.2 r9819"
	 xmlns="http://www.w3.org/2000/svg" xmlns:xlink="http://www.w3.org/1999/xlink" x="0px" y="0px" width="63.602px"
	 height="50.68px" viewBox="0 0 63.602 50.68" enable-background="new 0 0 63.602 50.68" xml:space="preserve">
	<path fill="#62a4d0" d="M36.017,14.842c-1.931,1.326-3.347,2.651-4.435,4.258c-0.994-2.272-2.448-3.856-4.365-4.755
		c-1.915-0.899-4.033-1.348-6.351-1.348c-2.413,0-4.555,0.52-6.422,1.561c-1.871,1.04-3.468,2.508-4.792,4.399H9.511V13.99H0V50.68
		h10.077V29.389c0-1.797,0.259-3.252,0.781-4.365c0.52-1.111,1.148-1.962,1.881-2.555c0.733-0.591,1.49-0.993,2.271-1.207
		c0.78-0.212,1.407-0.318,1.881-0.318c1.609,0,2.827,0.272,3.655,0.816c0.828,0.544,1.419,1.266,1.774,2.165
		c0.355,0.899,0.556,1.881,0.604,2.946c0.046,1.062,0.071,2.141,0.071,3.229v20.58h10.077V30.242c0-1.137,0.082-2.26,0.248-3.371
		c0.165-1.111,0.498-2.105,0.994-2.982c0.498-0.874,1.183-1.584,2.06-2.128c0.874-0.544,2.021-0.816,3.44-0.816
		c0.038,0,0.071,0.004,0.109,0.005v-7.692C39.923,13.258,37.841,13.59,36.017,14.842z"/>
<path id="path3053" inkscape:connector-curvature="0" sodipodi:nodetypes="cscccscscscccsssccccccccsc" fill="#FFFFFF" d="
	M56.965,8.551c0.594-0.638,1.574-0.958,2.947-0.958c1.275,0,2.506,0.071,3.689,0.213V0.283c-0.854-0.047-1.729-0.107-2.625-0.177
	C60.076,0.035,59.178,0,58.279,0c-4.117,0-7.193,1.042-9.228,3.123c-2.035,2.083-3.053,4.755-3.053,8.021v2.124
	c-1.064-0.172-2.178-0.27-3.348-0.27c-0.956,0-1.865,0.086-2.729,0.26v7.694c1.365,0.013,2.455,0.246,3.262,0.705
	c0.826,0.474,1.453,1.112,1.881,1.917c0.427,0.805,0.686,1.751,0.779,2.839s0.144,2.247,0.144,3.478v20.795h10.08v-0.01h0.01V20.723
	h7.455V13.98h-7.455v-2.199C56.078,10.266,56.373,9.19,56.965,8.551z"/>
</svg>
